<svg display="none" xmlns="http://www.w3.org/2000/svg">
    <symbol id="down_arrow_icon" viewBox="0 0 490.688 490.688">
        <g>
            <path d="M472.328,216.529L245.213,443.665L18.098,216.529c-4.237-4.093-10.99-3.975-15.083,0.262
        c-3.992,4.134-3.992,10.687,0,14.82l234.667,234.667c4.165,4.164,10.917,4.164,15.083,0l234.667-234.667
        c4.093-4.237,3.975-10.99-0.262-15.083c-4.134-3.993-10.687-3.993-14.821,0L472.328,216.529z" />
            <path d="M472.328,24.529L245.213,251.665L18.098,24.529c-4.237-4.093-10.99-3.975-15.083,0.262
        c-3.992,4.134-3.992,10.687,0,14.821l234.667,234.667c4.165,4.164,10.917,4.164,15.083,0L487.432,39.612
        c4.237-4.093,4.354-10.845,0.262-15.083c-4.093-4.237-10.845-4.354-15.083-0.262c-0.089,0.086-0.176,0.173-0.262,0.262
        L472.328,24.529z" />
        </g>
    </symbol>
    <symbol id="tag_img" viewBox="0 0 522.468 522.469">
        <g>
            <path d="M325.762,70.513l-17.706-4.854c-2.279-0.76-4.524-0.521-6.707,0.715c-2.19,1.237-3.669,3.094-4.429,5.568L190.426,440.53
            c-0.76,2.475-0.522,4.809,0.715,6.995c1.237,2.19,3.09,3.665,5.568,4.425l17.701,4.856c2.284,0.766,4.521,0.526,6.71-0.712
            c2.19-1.243,3.666-3.094,4.425-5.564L332.042,81.936c0.759-2.474,0.523-4.808-0.716-6.999
            C330.088,72.747,328.237,71.272,325.762,70.513z" />
            <path d="M166.167,142.465c0-2.474-0.953-4.665-2.856-6.567l-14.277-14.276c-1.903-1.903-4.093-2.857-6.567-2.857
            s-4.665,0.955-6.567,2.857L2.856,254.666C0.95,256.569,0,258.759,0,261.233c0,2.474,0.953,4.664,2.856,6.566l133.043,133.044
            c1.902,1.906,4.089,2.854,6.567,2.854s4.665-0.951,6.567-2.854l14.277-14.268c1.903-1.902,2.856-4.093,2.856-6.57
            c0-2.471-0.953-4.661-2.856-6.563L51.107,261.233l112.204-112.201C165.217,147.13,166.167,144.939,166.167,142.465z" />
            <path d="M519.614,254.663L386.567,121.619c-1.902-1.902-4.093-2.857-6.563-2.857c-2.478,0-4.661,0.955-6.57,2.857l-14.271,14.275
            c-1.902,1.903-2.851,4.09-2.851,6.567s0.948,4.665,2.851,6.567l112.206,112.204L359.163,373.442
            c-1.902,1.902-2.851,4.093-2.851,6.563c0,2.478,0.948,4.668,2.851,6.57l14.271,14.268c1.909,1.906,4.093,2.854,6.57,2.854
            c2.471,0,4.661-0.951,6.563-2.854L519.614,267.8c1.903-1.902,2.854-4.096,2.854-6.57
            C522.468,258.755,521.517,256.565,519.614,254.663z" />
        </g>
    </symbol>
</svg>

